<svg xmlns="http://www.w3.org/2000/svg" width="504.0pt" height="118.8pt" viewBox="0 0 504.0 118.8" font-family="Helvetica, Arial, sans-serif">
<rect width="504.0" height="118.8" fill="#ffffff"/>
<line x1="16.00" y1="5.10" x2="500.00" y2="5.10" stroke="#7d8289" stroke-width="0.5"/>
<rect x="69.95" y="3.00" width="27.51" height="4.20" fill="#2a78d6"><title>r9 nic.put 6.70–10.11 ms</title></rect>
<rect x="97.48" y="3.00" width="19.73" height="4.20" fill="#2a78d6"><title>r9 nic.put 10.12–12.57 ms</title></rect>
<rect x="117.25" y="3.00" width="37.60" height="4.20" fill="#2a78d6"><title>r9 nic.put 12.57–17.24 ms</title></rect>
<rect x="376.17" y="3.00" width="87.11" height="4.20" fill="#2a78d6"><title>r9 nic.put 44.72–55.53 ms</title></rect>
<rect x="386.48" y="3.00" width="76.80" height="4.20" fill="#2a78d6"><title>r9 nic.put 46.00–55.53 ms</title></rect>
<rect x="416.14" y="3.00" width="47.14" height="4.20" fill="#2a78d6"><title>r9 nic.put 49.68–55.53 ms</title></rect>
<line x1="16.00" y1="10.10" x2="500.00" y2="10.10" stroke="#7d8289" stroke-width="0.5" stroke-dasharray="2,1.5"/>
<rect x="66.38" y="8.00" width="4.09" height="4.20" fill="#2a78d6"><title>r9 nvlink.token 41 MB 6.25–6.76 ms</title></rect>
<rect x="66.43" y="8.00" width="9.56" height="4.20" fill="#2a78d6"><title>r9 nvlink.token 45 MB 6.26–7.45 ms</title></rect>
<rect x="76.05" y="8.00" width="7.99" height="4.20" fill="#2a78d6"><title>r9 nvlink.token 39 MB 7.46–8.45 ms</title></rect>
<rect x="98.76" y="8.00" width="5.71" height="4.20" fill="#2a78d6"><title>r9 nvlink.token 66 MB 10.28–10.98 ms</title></rect>
<rect x="108.58" y="8.00" width="13.66" height="4.20" fill="#2a78d6"><title>r9 nvlink.token 66 MB 11.49–13.19 ms</title></rect>
<rect x="134.64" y="8.00" width="13.59" height="4.20" fill="#2a78d6"><title>r9 nvlink.token 66 MB 14.73–16.42 ms</title></rect>
<rect x="148.48" y="8.00" width="13.53" height="4.20" fill="#2a78d6"><title>r9 nvlink.token 66 MB 16.45–18.13 ms</title></rect>
<rect x="164.38" y="8.00" width="13.51" height="4.20" fill="#2a78d6"><title>r9 nvlink.token 66 MB 18.42–20.10 ms</title></rect>
<rect x="178.04" y="8.00" width="5.87" height="4.20" fill="#2a78d6"><title>r9 nvlink.token 66 MB 20.12–20.85 ms</title></rect>
<rect x="186.99" y="8.00" width="13.57" height="4.20" fill="#2a78d6"><title>r9 nvlink.token 66 MB 21.23–22.92 ms</title></rect>
<rect x="200.86" y="8.00" width="5.65" height="4.20" fill="#2a78d6"><title>r9 nvlink.token 66 MB 22.95–23.65 ms</title></rect>
<rect x="206.74" y="8.00" width="13.55" height="4.20" fill="#2a78d6"><title>r9 nvlink.token 66 MB 23.68–25.36 ms</title></rect>
<rect x="316.16" y="8.00" width="4.87" height="4.20" fill="#2a78d6"><title>r9 nvlink.token 57 MB 37.27–37.87 ms</title></rect>
<rect x="316.17" y="8.00" width="4.85" height="4.20" fill="#2a78d6"><title>r9 nvlink.token 56 MB 37.27–37.87 ms</title></rect>
<rect x="321.22" y="8.00" width="12.03" height="4.20" fill="#2a78d6"><title>r9 nvlink.token 58 MB 37.90–39.39 ms</title></rect>
<rect x="350.44" y="8.00" width="4.82" height="4.20" fill="#2a78d6"><title>r9 nvlink.token 56 MB 41.52–42.12 ms</title></rect>
<rect x="350.44" y="8.00" width="4.98" height="4.20" fill="#2a78d6"><title>r9 nvlink.token 58 MB 41.52–42.14 ms</title></rect>
<rect x="355.41" y="8.00" width="11.87" height="4.20" fill="#2a78d6"><title>r9 nvlink.token 57 MB 42.14–43.61 ms</title></rect>
<rect x="385.75" y="8.00" width="4.85" height="4.20" fill="#2a78d6"><title>r9 nvlink.token 56 MB 45.91–46.51 ms</title></rect>
<rect x="385.76" y="8.00" width="4.94" height="4.20" fill="#2a78d6"><title>r9 nvlink.token 56 MB 45.91–46.52 ms</title></rect>
<rect x="390.80" y="8.00" width="11.79" height="4.20" fill="#2a78d6"><title>r9 nvlink.token 57 MB 46.53–48.00 ms</title></rect>
<rect x="408.48" y="8.00" width="11.92" height="4.20" fill="#2a78d6"><title>r9 nvlink.token 57 MB 48.73–50.21 ms</title></rect>
<rect x="408.49" y="8.00" width="5.13" height="4.20" fill="#2a78d6"><title>r9 nvlink.token 58 MB 48.73–49.37 ms</title></rect>
<rect x="420.58" y="8.00" width="5.19" height="4.20" fill="#2a78d6"><title>r9 nvlink.token 58 MB 50.23–50.88 ms</title></rect>
<line x1="16.00" y1="15.10" x2="500.00" y2="15.10" stroke="#7d8289" stroke-width="0.5" stroke-dasharray="0.6,1.2"/>
<rect x="16.99" y="13.00" width="62.22" height="4.20" fill="#2f8f9d"><title>r9 plan / metadata phase (16 kernels) 0.12–7.85 ms</title></rect>
<rect x="79.26" y="13.00" width="168.72" height="4.20" fill="#eda100"><title>r9 gemm.l0 7.85–28.80 ms</title></rect>
<rect x="248.94" y="13.00" width="10.79" height="4.20" fill="#2f8f9d"><title>r9 plan / metadata phase (2 kernels) 28.92–30.26 ms</title></rect>
<rect x="259.96" y="13.00" width="0.42" height="4.20" fill="#c9c8c0"><title>r9 barrier 30.29–30.34 ms</title></rect>
<rect x="260.90" y="13.00" width="146.73" height="4.20" fill="#eda100"><title>r9 gemm.l1 30.41–48.62 ms</title></rect>
<rect x="463.31" y="13.00" width="27.10" height="4.20" fill="#c9c8c0"><title>r9 barrier 55.54–58.90 ms</title></rect>
<line x1="16.00" y1="20.10" x2="500.00" y2="20.10" stroke="#7d8289" stroke-width="0.5" stroke-dasharray="0.6,1.2"/>
<rect x="260.85" y="18.00" width="146.88" height="4.20" fill="#c8553d"><title>r9 combine.pack 30.40–48.64 ms</title></rect>
<rect x="260.87" y="18.00" width="155.28" height="4.20" fill="#c8553d"><title>r9 combine.prereduce 30.40–49.68 ms</title></rect>
<rect x="409.93" y="18.00" width="0.92" height="4.20" fill="#c8553d"><title>r9 combine.reduce 48.91–49.02 ms</title></rect>
<rect x="410.89" y="18.00" width="7.71" height="4.20" fill="#c8553d"><title>r9 combine.reduce 49.03–49.99 ms</title></rect>
<rect x="418.65" y="18.00" width="33.29" height="4.20" fill="#c8553d"><title>r9 combine.reduce 49.99–54.13 ms</title></rect>
<line x1="490.44" y1="2.60" x2="490.44" y2="22.60" stroke="#17191c" stroke-width="0.5"/>
<line x1="16.00" y1="26.80" x2="500.00" y2="26.80" stroke="#7d8289" stroke-width="0.5"/>
<rect x="65.64" y="24.70" width="33.75" height="4.20" fill="#2a78d6"><title>r12 nic.put 6.16–10.35 ms</title></rect>
<rect x="99.43" y="24.70" width="22.21" height="4.20" fill="#2a78d6"><title>r12 nic.put 10.36–13.12 ms</title></rect>
<rect x="121.68" y="24.70" width="34.51" height="4.20" fill="#2a78d6"><title>r12 nic.put 13.12–17.40 ms</title></rect>
<rect x="308.29" y="24.70" width="82.95" height="4.20" fill="#2a78d6"><title>r12 nic.put 36.29–46.59 ms</title></rect>
<rect x="316.40" y="24.70" width="74.85" height="4.20" fill="#2a78d6"><title>r12 nic.put 37.30–46.59 ms</title></rect>
<rect x="333.54" y="24.70" width="57.70" height="4.20" fill="#2a78d6"><title>r12 nic.put 39.42–46.59 ms</title></rect>
<line x1="16.00" y1="31.80" x2="500.00" y2="31.80" stroke="#7d8289" stroke-width="0.5" stroke-dasharray="2,1.5"/>
<rect x="62.56" y="29.70" width="2.06" height="4.20" fill="#2a78d6"><title>r12 nvlink.token 24 MB 5.78–6.04 ms</title></rect>
<rect x="62.62" y="29.70" width="2.25" height="4.20" fill="#2a78d6"><title>r12 nvlink.token 26 MB 5.79–6.07 ms</title></rect>
<rect x="62.64" y="29.70" width="5.15" height="4.20" fill="#2a78d6"><title>r12 nvlink.token 25 MB 5.79–6.43 ms</title></rect>
<rect x="91.27" y="29.70" width="4.25" height="4.20" fill="#2a78d6"><title>r12 nvlink.token 49 MB 9.35–9.87 ms</title></rect>
<rect x="95.74" y="29.70" width="10.10" height="4.20" fill="#2a78d6"><title>r12 nvlink.token 49 MB 9.90–11.15 ms</title></rect>
<rect x="107.46" y="29.70" width="4.23" height="4.20" fill="#2a78d6"><title>r12 nvlink.token 49 MB 11.36–11.88 ms</title></rect>
<rect x="114.56" y="29.70" width="10.06" height="4.20" fill="#2a78d6"><title>r12 nvlink.token 49 MB 12.24–13.49 ms</title></rect>
<rect x="126.33" y="29.70" width="4.21" height="4.20" fill="#2a78d6"><title>r12 nvlink.token 49 MB 13.70–14.22 ms</title></rect>
<rect x="130.80" y="29.70" width="4.24" height="4.20" fill="#2a78d6"><title>r12 nvlink.token 49 MB 14.25–14.78 ms</title></rect>
<rect x="168.13" y="29.70" width="4.47" height="4.20" fill="#2a78d6"><title>r12 nvlink.token 52 MB 18.89–19.44 ms</title></rect>
<rect x="172.69" y="29.70" width="4.46" height="4.20" fill="#2a78d6"><title>r12 nvlink.token 52 MB 19.45–20.01 ms</title></rect>
<rect x="177.29" y="29.70" width="10.68" height="4.20" fill="#2a78d6"><title>r12 nvlink.token 52 MB 20.03–21.35 ms</title></rect>
<rect x="273.26" y="29.70" width="2.07" height="4.20" fill="#2a78d6"><title>r12 nvlink.token 20 MB 31.94–32.20 ms</title></rect>
<rect x="273.27" y="29.70" width="2.47" height="4.20" fill="#2a78d6"><title>r12 nvlink.token 12 MB 31.94–32.25 ms</title></rect>
<rect x="273.27" y="29.70" width="1.08" height="4.20" fill="#2a78d6"><title>r12 nvlink.token 12 MB 31.94–32.08 ms</title></rect>
<rect x="283.98" y="29.70" width="1.05" height="4.20" fill="#2a78d6"><title>r12 nvlink.token 12 MB 33.27–33.40 ms</title></rect>
<rect x="283.98" y="29.70" width="1.14" height="4.20" fill="#2a78d6"><title>r12 nvlink.token 13 MB 33.27–33.41 ms</title></rect>
<rect x="283.98" y="29.70" width="4.08" height="4.20" fill="#2a78d6"><title>r12 nvlink.token 20 MB 33.27–33.78 ms</title></rect>
<rect x="298.38" y="29.70" width="1.72" height="4.20" fill="#2a78d6"><title>r12 nvlink.token 20 MB 35.06–35.27 ms</title></rect>
<rect x="298.38" y="29.70" width="1.75" height="4.20" fill="#2a78d6"><title>r12 nvlink.token 20 MB 35.06–35.28 ms</title></rect>
<rect x="298.38" y="29.70" width="4.46" height="4.20" fill="#2a78d6"><title>r12 nvlink.token 22 MB 35.06–35.61 ms</title></rect>
<rect x="319.53" y="29.70" width="3.85" height="4.20" fill="#2a78d6"><title>r12 nvlink.token 44 MB 37.69–38.16 ms</title></rect>
<rect x="319.53" y="29.70" width="9.57" height="4.20" fill="#2a78d6"><title>r12 nvlink.token 46 MB 37.69–38.87 ms</title></rect>
<rect x="319.53" y="29.70" width="3.86" height="4.20" fill="#2a78d6"><title>r12 nvlink.token 45 MB 37.69–38.17 ms</title></rect>
<line x1="16.00" y1="36.80" x2="500.00" y2="36.80" stroke="#7d8289" stroke-width="0.5" stroke-dasharray="0.6,1.2"/>
<rect x="17.01" y="34.70" width="55.59" height="4.20" fill="#2f8f9d"><title>r12 plan / metadata phase (14 kernels) 0.12–7.03 ms</title></rect>
<rect x="75.06" y="34.70" width="121.11" height="4.20" fill="#eda100"><title>r12 gemm.l0 7.33–22.37 ms</title></rect>
<rect x="197.11" y="34.70" width="52.44" height="4.20" fill="#c9c8c0"><title>r12 barrier 22.49–29.00 ms</title></rect>
<rect x="249.60" y="34.70" width="4.70" height="4.20" fill="#2f8f9d"><title>r12 plan / metadata phase (2 kernels) 29.00–29.59 ms</title></rect>
<rect x="254.52" y="34.70" width="6.30" height="4.20" fill="#c9c8c0"><title>r12 barrier 29.61–30.40 ms</title></rect>
<rect x="261.39" y="34.70" width="57.51" height="4.20" fill="#eda100"><title>r12 gemm.l1 30.47–37.61 ms</title></rect>
<rect x="457.35" y="34.70" width="33.14" height="4.20" fill="#c9c8c0"><title>r12 barrier 54.80–58.91 ms</title></rect>
<line x1="16.00" y1="41.80" x2="500.00" y2="41.80" stroke="#7d8289" stroke-width="0.5" stroke-dasharray="0.6,1.2"/>
<rect x="261.32" y="39.70" width="57.64" height="4.20" fill="#c8553d"><title>r12 combine.pack 30.46–37.62 ms</title></rect>
<rect x="261.34" y="39.70" width="72.20" height="4.20" fill="#c8553d"><title>r12 combine.prereduce 30.46–39.42 ms</title></rect>
<rect x="409.57" y="39.70" width="0.43" height="4.20" fill="#c8553d"><title>r12 combine.reduce 48.87–48.92 ms</title></rect>
<rect x="410.03" y="39.70" width="4.01" height="4.20" fill="#c8553d"><title>r12 combine.reduce 48.92–49.42 ms</title></rect>
<rect x="434.60" y="39.70" width="22.72" height="4.20" fill="#c8553d"><title>r12 combine.reduce 51.97–54.79 ms</title></rect>
<line x1="490.51" y1="24.30" x2="490.51" y2="44.30" stroke="#17191c" stroke-width="0.5"/>
<line x1="16.00" y1="53.00" x2="500.00" y2="53.00" stroke="#7d8289" stroke-width="0.5"/>
<rect x="63.09" y="50.90" width="27.70" height="4.20" fill="#2a78d6"><title>r13 nic.put 5.85–9.29 ms</title></rect>
<rect x="90.82" y="50.90" width="24.59" height="4.20" fill="#2a78d6"><title>r13 nic.put 9.29–12.34 ms</title></rect>
<rect x="115.44" y="50.90" width="29.59" height="4.20" fill="#2a78d6"><title>r13 nic.put 12.35–16.02 ms</title></rect>
<rect x="275.89" y="50.90" width="77.66" height="4.20" fill="#2a78d6"><title>r13 nic.put 32.27–41.91 ms</title></rect>
<rect x="296.30" y="50.90" width="57.26" height="4.20" fill="#2a78d6"><title>r13 nic.put 34.80–41.91 ms</title></rect>
<rect x="314.78" y="50.90" width="38.76" height="4.20" fill="#2a78d6"><title>r13 nic.put 37.10–41.91 ms</title></rect>
<line x1="16.00" y1="58.00" x2="500.00" y2="58.00" stroke="#7d8289" stroke-width="0.5" stroke-dasharray="2,1.5"/>
<rect x="60.92" y="55.90" width="7.32" height="4.20" fill="#2a78d6"><title>r13 nvlink.token 35 MB 5.58–6.49 ms</title></rect>
<rect x="60.95" y="55.90" width="3.50" height="4.20" fill="#2a78d6"><title>r13 nvlink.token 40 MB 5.58–6.02 ms</title></rect>
<rect x="68.28" y="55.90" width="7.52" height="4.20" fill="#2a78d6"><title>r13 nvlink.token 36 MB 6.49–7.43 ms</title></rect>
<rect x="90.99" y="55.90" width="4.67" height="4.20" fill="#2a78d6"><title>r13 nvlink.token 54 MB 9.31–9.89 ms</title></rect>
<rect x="95.84" y="55.90" width="11.07" height="4.20" fill="#2a78d6"><title>r13 nvlink.token 54 MB 9.91–11.29 ms</title></rect>
<rect x="108.74" y="55.90" width="11.15" height="4.20" fill="#2a78d6"><title>r13 nvlink.token 54 MB 11.51–12.90 ms</title></rect>
<rect x="120.10" y="55.90" width="11.40" height="4.20" fill="#2a78d6"><title>r13 nvlink.token 54 MB 12.93–14.34 ms</title></rect>
<rect x="133.32" y="55.90" width="11.23" height="4.20" fill="#2a78d6"><title>r13 nvlink.token 54 MB 14.57–15.96 ms</title></rect>
<rect x="144.70" y="55.90" width="4.87" height="4.20" fill="#2a78d6"><title>r13 nvlink.token 54 MB 15.98–16.58 ms</title></rect>
<rect x="151.66" y="55.90" width="11.49" height="4.20" fill="#2a78d6"><title>r13 nvlink.token 56 MB 16.84–18.27 ms</title></rect>
<rect x="163.25" y="55.90" width="4.80" height="4.20" fill="#2a78d6"><title>r13 nvlink.token 56 MB 18.28–18.88 ms</title></rect>
<rect x="168.18" y="55.90" width="11.48" height="4.20" fill="#2a78d6"><title>r13 nvlink.token 56 MB 18.89–20.32 ms</title></rect>
<rect x="242.57" y="55.90" width="6.05" height="4.20" fill="#2a78d6"><title>r13 nvlink.token 29 MB 28.13–28.88 ms</title></rect>
<rect x="248.65" y="55.90" width="6.42" height="4.20" fill="#2a78d6"><title>r13 nvlink.token 31 MB 28.89–29.68 ms</title></rect>
<rect x="248.78" y="55.90" width="2.18" height="4.20" fill="#2a78d6"><title>r13 nvlink.token 25 MB 28.90–29.17 ms</title></rect>
<rect x="262.28" y="55.90" width="5.04" height="4.20" fill="#2a78d6"><title>r13 nvlink.token 24 MB 30.58–31.20 ms</title></rect>
<rect x="267.35" y="55.90" width="5.75" height="4.20" fill="#2a78d6"><title>r13 nvlink.token 28 MB 31.21–31.92 ms</title></rect>
<rect x="267.44" y="55.90" width="2.20" height="4.20" fill="#2a78d6"><title>r13 nvlink.token 25 MB 31.22–31.49 ms</title></rect>
<rect x="285.28" y="55.90" width="6.55" height="4.20" fill="#2a78d6"><title>r13 nvlink.token 32 MB 33.43–34.25 ms</title></rect>
<rect x="291.85" y="55.90" width="6.93" height="4.20" fill="#2a78d6"><title>r13 nvlink.token 34 MB 34.25–35.11 ms</title></rect>
<rect x="291.98" y="55.90" width="2.86" height="4.20" fill="#2a78d6"><title>r13 nvlink.token 33 MB 34.27–34.62 ms</title></rect>
<rect x="305.46" y="55.90" width="4.25" height="4.20" fill="#2a78d6"><title>r13 nvlink.token 49 MB 35.94–36.47 ms</title></rect>
<rect x="305.47" y="55.90" width="10.14" height="4.20" fill="#2a78d6"><title>r13 nvlink.token 49 MB 35.94–37.20 ms</title></rect>
<rect x="315.66" y="55.90" width="10.30" height="4.20" fill="#2a78d6"><title>r13 nvlink.token 49 MB 37.20–38.48 ms</title></rect>
<line x1="16.00" y1="63.00" x2="500.00" y2="63.00" stroke="#7d8289" stroke-width="0.5" stroke-dasharray="0.6,1.2"/>
<rect x="17.09" y="60.90" width="53.14" height="4.20" fill="#2f8f9d"><title>r13 plan / metadata phase (13 kernels) 0.14–6.73 ms</title></rect>
<rect x="72.61" y="60.90" width="124.64" height="4.20" fill="#eda100"><title>r13 gemm.l0 7.03–22.50 ms</title></rect>
<rect x="198.09" y="60.90" width="17.07" height="4.20" fill="#c9c8c0"><title>r13 barrier 22.61–24.73 ms</title></rect>
<rect x="215.19" y="60.90" width="6.55" height="4.20" fill="#2f8f9d"><title>r13 plan / metadata phase (2 kernels) 24.73–25.54 ms</title></rect>
<rect x="221.94" y="60.90" width="1.70" height="4.20" fill="#c9c8c0"><title>r13 barrier 25.57–25.78 ms</title></rect>
<rect x="223.94" y="60.90" width="80.84" height="4.20" fill="#eda100"><title>r13 gemm.l1 25.82–35.85 ms</title></rect>
<rect x="377.74" y="60.90" width="31.67" height="4.20" fill="#c9c8c0"><title>r13 barrier 44.91–48.84 ms</title></rect>
<line x1="16.00" y1="68.00" x2="500.00" y2="68.00" stroke="#7d8289" stroke-width="0.5" stroke-dasharray="0.6,1.2"/>
<rect x="223.91" y="65.90" width="80.95" height="4.20" fill="#c8553d"><title>r13 combine.pack 25.81–35.86 ms</title></rect>
<rect x="223.95" y="65.90" width="90.82" height="4.20" fill="#c8553d"><title>r13 combine.prereduce 25.82–37.09 ms</title></rect>
<rect x="316.55" y="65.90" width="1.11" height="4.20" fill="#c8553d"><title>r13 combine.reduce 37.32–37.45 ms</title></rect>
<rect x="346.06" y="65.90" width="8.02" height="4.20" fill="#c8553d"><title>r13 combine.reduce 40.98–41.98 ms</title></rect>
<rect x="354.12" y="65.90" width="23.59" height="4.20" fill="#c8553d"><title>r13 combine.reduce 41.98–44.91 ms</title></rect>
<line x1="409.43" y1="50.50" x2="409.43" y2="70.50" stroke="#17191c" stroke-width="0.5"/>
<line x1="16.00" y1="74.70" x2="500.00" y2="74.70" stroke="#7d8289" stroke-width="0.5"/>
<rect x="67.93" y="72.60" width="31.74" height="4.20" fill="#2a78d6"><title>r14 nic.put 6.45–10.39 ms</title></rect>
<rect x="99.71" y="72.60" width="31.49" height="4.20" fill="#2a78d6"><title>r14 nic.put 10.39–14.30 ms</title></rect>
<rect x="131.22" y="72.60" width="22.89" height="4.20" fill="#2a78d6"><title>r14 nic.put 14.31–17.15 ms</title></rect>
<rect x="286.76" y="72.60" width="97.24" height="4.20" fill="#2a78d6"><title>r14 nic.put 33.62–45.69 ms</title></rect>
<rect x="296.81" y="72.60" width="87.19" height="4.20" fill="#2a78d6"><title>r14 nic.put 34.86–45.69 ms</title></rect>
<rect x="316.43" y="72.60" width="67.56" height="4.20" fill="#2a78d6"><title>r14 nic.put 37.30–45.69 ms</title></rect>
<line x1="16.00" y1="79.70" x2="500.00" y2="79.70" stroke="#7d8289" stroke-width="0.5" stroke-dasharray="2,1.5"/>
<rect x="60.68" y="77.60" width="7.95" height="4.20" fill="#2a78d6"><title>r14 nvlink.token 38 MB 5.55–6.53 ms</title></rect>
<rect x="60.75" y="77.60" width="3.52" height="4.20" fill="#2a78d6"><title>r14 nvlink.token 41 MB 5.56–5.99 ms</title></rect>
<rect x="64.54" y="77.60" width="3.20" height="4.20" fill="#2a78d6"><title>r14 nvlink.token 37 MB 6.03–6.42 ms</title></rect>
<rect x="89.07" y="77.60" width="4.65" height="4.20" fill="#2a78d6"><title>r14 nvlink.token 54 MB 9.07–9.65 ms</title></rect>
<rect x="93.93" y="77.60" width="10.96" height="4.20" fill="#2a78d6"><title>r14 nvlink.token 54 MB 9.68–11.04 ms</title></rect>
<rect x="106.60" y="77.60" width="4.68" height="4.20" fill="#2a78d6"><title>r14 nvlink.token 54 MB 11.25–11.83 ms</title></rect>
<rect x="111.43" y="77.60" width="11.13" height="4.20" fill="#2a78d6"><title>r14 nvlink.token 54 MB 11.85–13.23 ms</title></rect>
<rect x="125.03" y="77.60" width="4.66" height="4.20" fill="#2a78d6"><title>r14 nvlink.token 54 MB 13.54–14.11 ms</title></rect>
<rect x="129.87" y="77.60" width="4.66" height="4.20" fill="#2a78d6"><title>r14 nvlink.token 54 MB 14.14–14.72 ms</title></rect>
<rect x="153.43" y="77.60" width="5.17" height="4.20" fill="#2a78d6"><title>r14 nvlink.token 56 MB 17.06–17.70 ms</title></rect>
<rect x="158.82" y="77.60" width="4.84" height="4.20" fill="#2a78d6"><title>r14 nvlink.token 56 MB 17.73–18.33 ms</title></rect>
<rect x="163.90" y="77.60" width="11.38" height="4.20" fill="#2a78d6"><title>r14 nvlink.token 56 MB 18.36–19.78 ms</title></rect>
<rect x="241.36" y="77.60" width="5.70" height="4.20" fill="#2a78d6"><title>r14 nvlink.token 27 MB 27.98–28.69 ms</title></rect>
<rect x="241.36" y="77.60" width="2.38" height="4.20" fill="#2a78d6"><title>r14 nvlink.token 26 MB 27.98–28.28 ms</title></rect>
<rect x="243.93" y="77.60" width="2.29" height="4.20" fill="#2a78d6"><title>r14 nvlink.token 27 MB 28.30–28.58 ms</title></rect>
<rect x="258.98" y="77.60" width="5.68" height="4.20" fill="#2a78d6"><title>r14 nvlink.token 27 MB 30.17–30.87 ms</title></rect>
<rect x="258.98" y="77.60" width="2.50" height="4.20" fill="#2a78d6"><title>r14 nvlink.token 24 MB 30.17–30.48 ms</title></rect>
<rect x="261.65" y="77.60" width="2.30" height="4.20" fill="#2a78d6"><title>r14 nvlink.token 25 MB 30.50–30.79 ms</title></rect>
<rect x="287.65" y="77.60" width="7.30" height="4.20" fill="#2a78d6"><title>r14 nvlink.token 35 MB 33.73–34.63 ms</title></rect>
<rect x="287.67" y="77.60" width="3.18" height="4.20" fill="#2a78d6"><title>r14 nvlink.token 37 MB 33.73–34.12 ms</title></rect>
<rect x="290.95" y="77.60" width="3.10" height="4.20" fill="#2a78d6"><title>r14 nvlink.token 36 MB 34.14–34.52 ms</title></rect>
<rect x="301.92" y="77.60" width="3.86" height="4.20" fill="#2a78d6"><title>r14 nvlink.token 45 MB 35.50–35.98 ms</title></rect>
<rect x="301.92" y="77.60" width="9.37" height="4.20" fill="#2a78d6"><title>r14 nvlink.token 46 MB 35.50–36.66 ms</title></rect>
<rect x="305.93" y="77.60" width="3.99" height="4.20" fill="#2a78d6"><title>r14 nvlink.token 46 MB 36.00–36.49 ms</title></rect>
<line x1="16.00" y1="84.70" x2="500.00" y2="84.70" stroke="#7d8289" stroke-width="0.5" stroke-dasharray="0.6,1.2"/>
<rect x="17.01" y="82.60" width="53.65" height="4.20" fill="#2f8f9d"><title>r14 plan / metadata phase (14 kernels) 0.12–6.79 ms</title></rect>
<rect x="72.86" y="82.60" width="112.21" height="4.20" fill="#eda100"><title>r14 gemm.l0 7.06–20.99 ms</title></rect>
<rect x="185.61" y="82.60" width="29.55" height="4.20" fill="#c9c8c0"><title>r14 barrier 21.06–24.73 ms</title></rect>
<rect x="215.22" y="82.60" width="6.36" height="4.20" fill="#2f8f9d"><title>r14 plan / metadata phase (2 kernels) 24.74–25.52 ms</title></rect>
<rect x="221.85" y="82.60" width="1.78" height="4.20" fill="#c9c8c0"><title>r14 barrier 25.56–25.78 ms</title></rect>
<rect x="224.20" y="82.60" width="77.06" height="4.20" fill="#eda100"><title>r14 gemm.l1 25.85–35.42 ms</title></rect>
<rect x="390.90" y="82.60" width="18.74" height="4.20" fill="#c9c8c0"><title>r14 barrier 46.55–48.87 ms</title></rect>
<line x1="16.00" y1="89.70" x2="500.00" y2="89.70" stroke="#7d8289" stroke-width="0.5" stroke-dasharray="0.6,1.2"/>
<rect x="224.08" y="87.60" width="77.25" height="4.20" fill="#c8553d"><title>r14 combine.pack 25.83–35.43 ms</title></rect>
<rect x="224.16" y="87.60" width="92.27" height="4.20" fill="#c8553d"><title>r14 combine.prereduce 25.84–37.30 ms</title></rect>
<rect x="329.28" y="87.60" width="1.08" height="4.20" fill="#c8553d"><title>r14 combine.reduce 38.90–39.03 ms</title></rect>
<rect x="330.39" y="87.60" width="8.28" height="4.20" fill="#c8553d"><title>r14 combine.reduce 39.03–40.06 ms</title></rect>
<rect x="357.66" y="87.60" width="33.21" height="4.20" fill="#c8553d"><title>r14 combine.reduce 42.42–46.54 ms</title></rect>
<line x1="409.67" y1="72.20" x2="409.67" y2="92.20" stroke="#17191c" stroke-width="0.5"/>
<rect x="84.08" y="8.00" width="6.07" height="4.20" fill="#1baf7a"><title>r9 nvlink.swap [w1, dispatch side] 29 MB 8.45–9.21 ms</title></rect>
<rect x="90.19" y="8.00" width="6.08" height="4.20" fill="#1baf7a"><title>r9 nvlink.swap [w1, dispatch side] 29 MB 9.21–9.97 ms</title></rect>
<rect x="96.30" y="8.00" width="6.07" height="4.20" fill="#1baf7a"><title>r9 nvlink.swap [w1, dispatch side] 29 MB 9.97–10.72 ms</title></rect>
<rect x="102.41" y="8.00" width="6.08" height="4.20" fill="#1baf7a"><title>r9 nvlink.swap [w1, dispatch side] 29 MB 10.73–11.48 ms</title></rect>
<rect x="122.30" y="8.00" width="6.08" height="4.20" fill="#1baf7a"><title>r9 nvlink.swap [w1, dispatch side] 29 MB 13.20–13.95 ms</title></rect>
<rect x="128.42" y="8.00" width="6.07" height="4.20" fill="#1baf7a"><title>r9 nvlink.swap [w1, dispatch side] 29 MB 13.96–14.71 ms</title></rect>
<rect x="134.51" y="8.00" width="2.53" height="4.20" fill="#1baf7a"><title>r9 nvlink.swap [w1, dispatch side] 29 MB 14.71–15.03 ms</title></rect>
<rect x="137.12" y="8.00" width="2.54" height="4.20" fill="#1baf7a"><title>r9 nvlink.swap [w1, dispatch side] 29 MB 15.04–15.35 ms</title></rect>
<rect x="260.52" y="8.00" width="2.66" height="4.20" fill="#1baf7a"><title>r9 nvlink.swap [w2, combine side] 29 MB 30.36–30.69 ms</title></rect>
<rect x="261.06" y="8.00" width="6.36" height="4.20" fill="#1baf7a"><title>r9 nvlink.swap [w2, combine side] 29 MB 30.43–31.22 ms</title></rect>
<rect x="263.24" y="8.00" width="2.56" height="4.20" fill="#1baf7a"><title>r9 nvlink.swap [w2, combine side] 29 MB 30.70–31.02 ms</title></rect>
<rect x="265.84" y="8.00" width="2.54" height="4.20" fill="#1baf7a"><title>r9 nvlink.swap [w2, combine side] 29 MB 31.02–31.34 ms</title></rect>
<rect x="267.45" y="8.00" width="6.08" height="4.20" fill="#1baf7a"><title>r9 nvlink.swap [w2, combine side] 29 MB 31.22–31.97 ms</title></rect>
<rect x="268.43" y="8.00" width="2.55" height="4.20" fill="#1baf7a"><title>r9 nvlink.swap [w2, combine side] 29 MB 31.34–31.66 ms</title></rect>
<rect x="273.61" y="8.00" width="2.53" height="4.20" fill="#1baf7a"><title>r9 nvlink.swap [w2, combine side] 29 MB 31.98–32.30 ms</title></rect>
<rect x="276.19" y="8.00" width="2.56" height="4.20" fill="#1baf7a"><title>r9 nvlink.swap [w2, combine side] 29 MB 32.30–32.62 ms</title></rect>
<rect x="74.70" y="29.70" width="2.54" height="4.20" fill="#1baf7a"><title>r12 nvlink.swap [w1, dispatch side] 29 MB 7.29–7.60 ms</title></rect>
<rect x="74.76" y="29.70" width="6.06" height="4.20" fill="#1baf7a"><title>r12 nvlink.swap [w1, dispatch side] 29 MB 7.30–8.05 ms</title></rect>
<rect x="77.27" y="29.70" width="2.54" height="4.20" fill="#1baf7a"><title>r12 nvlink.swap [w1, dispatch side] 29 MB 7.61–7.92 ms</title></rect>
<rect x="260.93" y="29.70" width="6.24" height="4.20" fill="#1baf7a"><title>r12 nvlink.swap [w2, combine side] 29 MB 30.41–31.18 ms</title></rect>
<rect x="261.43" y="29.70" width="2.96" height="4.20" fill="#1baf7a"><title>r12 nvlink.swap [w2, combine side] 29 MB 30.47–30.84 ms</title></rect>
<rect x="264.42" y="29.70" width="2.57" height="4.20" fill="#1baf7a"><title>r12 nvlink.swap [w2, combine side] 29 MB 30.84–31.16 ms</title></rect>
<rect x="75.84" y="55.90" width="6.07" height="4.20" fill="#1baf7a"><title>r13 nvlink.swap [w1, dispatch side] 29 MB 7.43–8.18 ms</title></rect>
<rect x="223.94" y="55.90" width="6.19" height="4.20" fill="#1baf7a"><title>r13 nvlink.swap [w2, combine side] 29 MB 25.82–26.59 ms</title></rect>
<rect x="72.53" y="77.60" width="2.56" height="4.20" fill="#1baf7a"><title>r14 nvlink.swap [w1, dispatch side] 29 MB 7.02–7.34 ms</title></rect>
<rect x="72.55" y="77.60" width="6.07" height="4.20" fill="#1baf7a"><title>r14 nvlink.swap [w1, dispatch side] 29 MB 7.02–7.78 ms</title></rect>
<rect x="223.79" y="77.60" width="6.17" height="4.20" fill="#1baf7a"><title>r14 nvlink.swap [w2, combine side] 29 MB 25.80–26.57 ms</title></rect>
<rect x="224.25" y="77.60" width="2.54" height="4.20" fill="#1baf7a"><title>r14 nvlink.swap [w2, combine side] 29 MB 25.86–26.17 ms</title></rect>
<line x1="16.00" y1="93.80" x2="500.00" y2="93.80" stroke="#5a5e66" stroke-width="0.5"/>
<line x1="16.00" y1="93.80" x2="16.00" y2="95.60" stroke="#5a5e66" stroke-width="0.5"/>
<text x="16.00" y="100.80" font-size="5" text-anchor="middle" fill="#5a5e66">0</text>
<line x1="96.54" y1="93.80" x2="96.54" y2="95.60" stroke="#5a5e66" stroke-width="0.5"/>
<text x="96.54" y="100.80" font-size="5" text-anchor="middle" fill="#5a5e66">10</text>
<line x1="177.08" y1="93.80" x2="177.08" y2="95.60" stroke="#5a5e66" stroke-width="0.5"/>
<text x="177.08" y="100.80" font-size="5" text-anchor="middle" fill="#5a5e66">20</text>
<line x1="257.63" y1="93.80" x2="257.63" y2="95.60" stroke="#5a5e66" stroke-width="0.5"/>
<text x="257.63" y="100.80" font-size="5" text-anchor="middle" fill="#5a5e66">30</text>
<line x1="338.17" y1="93.80" x2="338.17" y2="95.60" stroke="#5a5e66" stroke-width="0.5"/>
<text x="338.17" y="100.80" font-size="5" text-anchor="middle" fill="#5a5e66">40</text>
<line x1="418.71" y1="93.80" x2="418.71" y2="95.60" stroke="#5a5e66" stroke-width="0.5"/>
<text x="418.71" y="100.80" font-size="5" text-anchor="middle" fill="#5a5e66">50</text>
<line x1="499.25" y1="93.80" x2="499.25" y2="95.60" stroke="#5a5e66" stroke-width="0.5"/>
<text x="500.00" y="100.80" font-size="5" text-anchor="end" fill="#5a5e66">ms</text>
<rect x="16.00" y="106.80" width="8.00" height="4.50" fill="#2a78d6"></rect>
<text x="26.00" y="110.80" font-size="5.2" text-anchor="start" fill="#5a5e66">Token Comm.</text>
<rect x="63.25" y="106.80" width="8.00" height="4.50" fill="#1baf7a"></rect>
<text x="73.25" y="110.80" font-size="5.2" text-anchor="start" fill="#5a5e66">Expert Swap</text>
<rect x="110.50" y="106.80" width="8.00" height="4.50" fill="#eda100"></rect>
<text x="120.50" y="110.80" font-size="5.2" text-anchor="start" fill="#5a5e66">Expert Comp.</text>
<rect x="160.50" y="106.80" width="8.00" height="4.50" fill="#c8553d"></rect>
<text x="170.50" y="110.80" font-size="5.2" text-anchor="start" fill="#5a5e66">Top-k Reduce</text>
<rect x="210.50" y="106.80" width="8.00" height="4.50" fill="#2f8f9d"></rect>
<text x="220.50" y="110.80" font-size="5.2" text-anchor="start" fill="#5a5e66">Plan / Metadata</text>
<rect x="268.75" y="106.80" width="8.00" height="4.50" fill="#c9c8c0"></rect>
<text x="278.75" y="110.80" font-size="5.2" text-anchor="start" fill="#5a5e66">Wait</text>
<text x="306.75" y="110.80" font-size="5.2" text-anchor="start" fill="#5a5e66">Host</text>
<line x1="324.75" y1="105.80" x2="324.75" y2="112.30" stroke="#17191c" stroke-width="0.5"/>
<text x="327.75" y="110.80" font-size="5.2" text-anchor="start" fill="#5a5e66">iteration end</text>
<line x1="372.50" y1="109.00" x2="384.50" y2="109.00" stroke="#7d8289" stroke-width="0.6"/>
<text x="386.50" y="110.80" font-size="5.2" text-anchor="start" fill="#5a5e66">NIC RDMA</text>
<line x1="415.50" y1="109.00" x2="427.50" y2="109.00" stroke="#7d8289" stroke-width="0.6" stroke-dasharray="2,1.5"/>
<text x="429.50" y="110.80" font-size="5.2" text-anchor="start" fill="#5a5e66">NVLink</text>
<line x1="453.00" y1="109.00" x2="465.00" y2="109.00" stroke="#7d8289" stroke-width="0.6" stroke-dasharray="0.6,1.2"/>
<text x="467.00" y="110.80" font-size="5.2" text-anchor="start" fill="#5a5e66">GPU</text>

<defs><pattern id="hosthatch" patternUnits="userSpaceOnUse" width="1.6" height="1.6" patternTransform="rotate(45)"><rect width="1.6" height="1.6" fill="#ececea"/><line x1="0" y1="0" x2="0" y2="1.6" stroke="#8a8f98" stroke-width="0.45"/></pattern></defs>
<text x="8.00" y="23.45" font-size="6.5" text-anchor="middle" fill="#17191c" transform="rotate(-90 8.00 23.45)" font-weight="bold"><tspan x="8.00" y="21.99">Prof. law</tspan><tspan x="8.00" y="29.46">rotating</tspan></text>
<rect x="18.12" y="13.00" width="17.89" height="4.20" fill="url(#hosthatch)"><title>r9 host swap.d2h, swap.decide, swap.apply_tables, swap.prepare 0.26–2.49 ms</title></rect>
<rect x="18.13" y="34.70" width="17.35" height="4.20" fill="url(#hosthatch)"><title>r12 host swap.d2h, swap.decide, swap.apply_tables, swap.prepare 0.26–2.42 ms</title></rect>
<text x="8.00" y="71.35" font-size="6.5" text-anchor="middle" fill="#17191c" transform="rotate(-90 8.00 71.35)" font-weight="bold">LiveCodeBench</text>
<rect x="18.89" y="60.90" width="9.15" height="4.20" fill="url(#hosthatch)"><title>r13 host swap.decide, swap.apply_tables, swap.prepare 0.36–1.49 ms</title></rect>
<rect x="18.00" y="82.60" width="10.09" height="4.20" fill="url(#hosthatch)"><title>r14 host swap.d2h, swap.decide, swap.apply_tables, swap.prepare 0.25–1.50 ms</title></rect>
<rect x="296.75" y="106.80" width="8.00" height="4.50" fill="url(#hosthatch)"></rect>
</svg>