<svg viewBox="0 0 1180 244" width="1180" height="244" role="img" xmlns="http://www.w3.org/2000/svg"><style>text{fill:#17191c;font-family:Helvetica,Arial,sans-serif}.ttl{font-size:15px;font-weight:600}.sub{font-size:12.5px;fill:#4f545c}.lbl{font-size:12.5px}.lanelbl{font-size:9.5px;fill:#7d8289}.tick{font-size:11px;fill:#4f545c}.val{font-size:11.5px}.stat{font-size:11px;fill:#4f545c}.ax,.lane{stroke:#dad7cf;stroke-width:1}.brk{stroke:#7d8289;stroke-width:1.2}</style><rect width="100%" height="100%" fill="#fdfcfa"/><defs><pattern id="hatch" patternUnits="userSpaceOnUse" width="6" height="6" patternTransform="rotate(45)"><rect width="6" height="6" fill="#ecebe6"/><line x1="0" y1="0" x2="0" y2="6" stroke="#8a8f96" stroke-width="1.6"/></pattern></defs><text x="8.0" y="22.0" class="ttl" text-anchor="start" >COMET</text><text x="8.0" y="40.0" class="sub" text-anchor="start" >one layer-0 step, iter4, K2 lcb 4n · device time per rank</text><text x="142.0" y="75.0" class="lbl" text-anchor="end" >rank 2 · node 0</text><rect x="157.3" y="60.0" width="42.4" height="22.0" fill="#c9c6bd" rx="1" ><title>index / pack / unpack / routing: 0.09–0.61 ms (7 launches)</title></rect><rect x="208.4" y="60.0" width="19.8" height="22.0" fill="url(#hatch)" rx="1" ><title>barrier / signal wait: 0.71–0.95 ms (1 launches)</title></rect><rect x="228.3" y="60.0" width="142.4" height="22.0" fill="#2a78d6" rx="1" ><title>inter-node wire (Slingshot): 0.95–2.69 ms (1 launches)</title></rect><rect x="228.8" y="60.0" width="47.2" height="22.0" fill="#1baf7a" rx="1" ><title>intra-node wire (NVLink P2P): 0.96–1.54 ms (3 launches)</title></rect><rect x="370.8" y="60.0" width="0.8" height="22.0" fill="url(#hatch)" rx="1" ><title>barrier / signal wait: 2.69–2.70 ms (1 launches)</title></rect><rect x="371.7" y="60.0" width="66.4" height="22.0" fill="#2a78d6" rx="1" ><title>inter-node wire (Slingshot): 2.70–3.51 ms (1 launches)</title></rect><rect x="372.9" y="60.0" width="47.4" height="22.0" fill="#1baf7a" rx="1" ><title>intra-node wire (NVLink P2P): 2.72–3.30 ms (3 launches)</title></rect><rect x="438.3" y="60.0" width="17.8" height="22.0" fill="url(#hatch)" rx="1" ><title>barrier / signal wait: 3.51–3.73 ms (1 launches)</title></rect><rect x="456.2" y="60.0" width="72.7" height="22.0" fill="#2a78d6" rx="1" ><title>inter-node wire (Slingshot): 3.73–4.62 ms (1 launches)</title></rect><rect x="457.0" y="60.0" width="46.8" height="22.0" fill="#1baf7a" rx="1" ><title>intra-node wire (NVLink P2P): 3.74–4.31 ms (3 launches)</title></rect><rect x="529.0" y="60.0" width="11.8" height="22.0" fill="url(#hatch)" rx="1" ><title>barrier / signal wait: 4.62–4.76 ms (1 launches)</title></rect><rect x="542.3" y="60.0" width="14.9" height="22.0" fill="#1baf7a" rx="1" ><title>intra-node wire (NVLink P2P): 4.78–4.96 ms (1 launches)</title></rect><rect x="542.8" y="60.0" width="166.7" height="22.0" fill="#eb6834" rx="1" ><title>expert GEMM (SM): 4.79–6.82 ms (1 launches)</title></rect><rect x="558.4" y="60.0" width="31.5" height="22.0" fill="#1baf7a" rx="1" ><title>intra-node wire (NVLink P2P): 4.98–5.36 ms (2 launches)</title></rect><rect x="709.6" y="60.0" width="125.3" height="22.0" fill="url(#hatch)" rx="1" ><title>barrier / signal wait: 6.82–8.35 ms (1 launches)</title></rect><text x="839.0" y="75.0" class="val" text-anchor="start" >8.4 ms</text><text x="910.0" y="75.0" class="stat" text-anchor="start" >7.4k rows · 48 MB inter-node fetched (fixed) · 192 MB NVLink</text><text x="142.0" y="105.0" class="lbl" text-anchor="end" >rank 4 · node 1</text><rect x="157.8" y="90.0" width="35.8" height="22.0" fill="#c9c6bd" rx="1" ><title>index / pack / unpack / routing: 0.10–0.53 ms (7 launches)</title></rect><rect x="203.0" y="90.0" width="18.2" height="22.0" fill="url(#hatch)" rx="1" ><title>barrier / signal wait: 0.65–0.87 ms (1 launches)</title></rect><rect x="221.2" y="90.0" width="65.1" height="22.0" fill="#2a78d6" rx="1" ><title>inter-node wire (Slingshot): 0.87–1.66 ms (1 launches)</title></rect><rect x="221.8" y="90.0" width="47.2" height="22.0" fill="#1baf7a" rx="1" ><title>intra-node wire (NVLink P2P): 0.88–1.45 ms (3 launches)</title></rect><rect x="286.4" y="90.0" width="12.6" height="22.0" fill="url(#hatch)" rx="1" ><title>barrier / signal wait: 1.66–1.82 ms (1 launches)</title></rect><rect x="299.1" y="90.0" width="62.3" height="22.0" fill="#2a78d6" rx="1" ><title>inter-node wire (Slingshot): 1.82–2.58 ms (1 launches)</title></rect><rect x="299.5" y="90.0" width="47.5" height="22.0" fill="#1baf7a" rx="1" ><title>intra-node wire (NVLink P2P): 1.82–2.40 ms (3 launches)</title></rect><rect x="361.5" y="90.0" width="22.8" height="22.0" fill="url(#hatch)" rx="1" ><title>barrier / signal wait: 2.58–2.86 ms (1 launches)</title></rect><rect x="384.3" y="90.0" width="79.8" height="22.0" fill="#2a78d6" rx="1" ><title>inter-node wire (Slingshot): 2.86–3.83 ms (1 launches)</title></rect><rect x="385.0" y="90.0" width="47.1" height="22.0" fill="#1baf7a" rx="1" ><title>intra-node wire (NVLink P2P): 2.86–3.44 ms (3 launches)</title></rect><rect x="464.2" y="90.0" width="8.0" height="22.0" fill="url(#hatch)" rx="1" ><title>barrier / signal wait: 3.83–3.93 ms (1 launches)</title></rect><rect x="473.1" y="90.0" width="14.8" height="22.0" fill="#1baf7a" rx="1" ><title>intra-node wire (NVLink P2P): 3.94–4.12 ms (1 launches)</title></rect><rect x="474.5" y="90.0" width="285.1" height="22.0" fill="#eb6834" rx="1" ><title>expert GEMM (SM): 3.96–7.43 ms (1 launches)</title></rect><rect x="488.6" y="90.0" width="31.5" height="22.0" fill="#1baf7a" rx="1" ><title>intra-node wire (NVLink P2P): 4.13–4.51 ms (2 launches)</title></rect><rect x="759.8" y="90.0" width="70.7" height="22.0" fill="url(#hatch)" rx="1" ><title>barrier / signal wait: 7.43–8.30 ms (1 launches)</title></rect><text x="834.5" y="105.0" class="val" text-anchor="start" >8.3 ms</text><text x="910.0" y="105.0" class="stat" text-anchor="start" >14.7k rows · 48 MB inter-node fetched (fixed) · 192 MB NVLink</text><text x="142.0" y="135.0" class="lbl" text-anchor="end" >rank 12 · node 3</text><rect x="157.6" y="120.0" width="37.3" height="22.0" fill="#c9c6bd" rx="1" ><title>index / pack / unpack / routing: 0.09–0.55 ms (7 launches)</title></rect><rect x="204.1" y="120.0" width="16.2" height="22.0" fill="url(#hatch)" rx="1" ><title>barrier / signal wait: 0.66–0.86 ms (1 launches)</title></rect><rect x="220.4" y="120.0" width="65.8" height="22.0" fill="#2a78d6" rx="1" ><title>inter-node wire (Slingshot): 0.86–1.66 ms (1 launches)</title></rect><rect x="221.1" y="120.0" width="46.6" height="22.0" fill="#1baf7a" rx="1" ><title>intra-node wire (NVLink P2P): 0.87–1.43 ms (3 launches)</title></rect><rect x="286.3" y="120.0" width="10.7" height="22.0" fill="url(#hatch)" rx="1" ><title>barrier / signal wait: 1.66–1.79 ms (1 launches)</title></rect><rect x="297.1" y="120.0" width="65.9" height="22.0" fill="#2a78d6" rx="1" ><title>inter-node wire (Slingshot): 1.79–2.60 ms (1 launches)</title></rect><rect x="297.6" y="120.0" width="47.5" height="22.0" fill="#1baf7a" rx="1" ><title>intra-node wire (NVLink P2P): 1.80–2.38 ms (3 launches)</title></rect><rect x="363.1" y="120.0" width="73.6" height="22.0" fill="url(#hatch)" rx="1" ><title>barrier / signal wait: 2.60–3.50 ms (1 launches)</title></rect><rect x="436.8" y="120.0" width="63.0" height="22.0" fill="#2a78d6" rx="1" ><title>inter-node wire (Slingshot): 3.50–4.26 ms (1 launches)</title></rect><rect x="437.4" y="120.0" width="47.1" height="22.0" fill="#1baf7a" rx="1" ><title>intra-node wire (NVLink P2P): 3.50–4.08 ms (3 launches)</title></rect><rect x="499.9" y="120.0" width="19.0" height="22.0" fill="url(#hatch)" rx="1" ><title>barrier / signal wait: 4.27–4.50 ms (1 launches)</title></rect><rect x="520.2" y="120.0" width="15.3" height="22.0" fill="#1baf7a" rx="1" ><title>intra-node wire (NVLink P2P): 4.51–4.70 ms (1 launches)</title></rect><rect x="520.9" y="120.0" width="228.4" height="22.0" fill="#eb6834" rx="1" ><title>expert GEMM (SM): 4.52–7.31 ms (1 launches)</title></rect><rect x="536.6" y="120.0" width="31.4" height="22.0" fill="#1baf7a" rx="1" ><title>intra-node wire (NVLink P2P): 4.71–5.10 ms (2 launches)</title></rect><rect x="749.5" y="120.0" width="84.8" height="22.0" fill="url(#hatch)" rx="1" ><title>barrier / signal wait: 7.31–8.34 ms (1 launches)</title></rect><text x="838.3" y="135.0" class="val" text-anchor="start" >8.3 ms</text><text x="910.0" y="135.0" class="stat" text-anchor="start" >11.3k rows · 48 MB inter-node fetched (fixed) · 192 MB NVLink</text><text x="142.0" y="165.0" class="lbl" text-anchor="end" >rank 14 · node 3</text><rect x="156.7" y="150.0" width="38.2" height="22.0" fill="#c9c6bd" rx="1" ><title>index / pack / unpack / routing: 0.08–0.55 ms (7 launches)</title></rect><rect x="203.9" y="150.0" width="16.8" height="22.0" fill="url(#hatch)" rx="1" ><title>barrier / signal wait: 0.66–0.86 ms (1 launches)</title></rect><rect x="220.8" y="150.0" width="64.5" height="22.0" fill="#2a78d6" rx="1" ><title>inter-node wire (Slingshot): 0.86–1.65 ms (1 launches)</title></rect><rect x="222.0" y="150.0" width="46.9" height="22.0" fill="#1baf7a" rx="1" ><title>intra-node wire (NVLink P2P): 0.88–1.45 ms (3 launches)</title></rect><rect x="285.4" y="150.0" width="15.1" height="22.0" fill="url(#hatch)" rx="1" ><title>barrier / signal wait: 1.65–1.84 ms (1 launches)</title></rect><rect x="300.6" y="150.0" width="129.1" height="22.0" fill="#2a78d6" rx="1" ><title>inter-node wire (Slingshot): 1.84–3.41 ms (1 launches)</title></rect><rect x="301.9" y="150.0" width="47.0" height="22.0" fill="#1baf7a" rx="1" ><title>intra-node wire (NVLink P2P): 1.85–2.42 ms (3 launches)</title></rect><rect x="429.8" y="150.0" width="0.9" height="22.0" fill="url(#hatch)" rx="1" ><title>barrier / signal wait: 3.41–3.42 ms (1 launches)</title></rect><rect x="430.8" y="150.0" width="67.5" height="22.0" fill="#2a78d6" rx="1" ><title>inter-node wire (Slingshot): 3.42–4.25 ms (1 launches)</title></rect><rect x="431.2" y="150.0" width="47.0" height="22.0" fill="#1baf7a" rx="1" ><title>intra-node wire (NVLink P2P): 3.43–4.00 ms (3 launches)</title></rect><rect x="498.4" y="150.0" width="23.8" height="22.0" fill="url(#hatch)" rx="1" ><title>barrier / signal wait: 4.25–4.54 ms (1 launches)</title></rect><rect x="523.0" y="150.0" width="14.8" height="22.0" fill="#1baf7a" rx="1" ><title>intra-node wire (NVLink P2P): 4.55–4.73 ms (1 launches)</title></rect><rect x="524.2" y="150.0" width="197.4" height="22.0" fill="#eb6834" rx="1" ><title>expert GEMM (SM): 4.56–6.97 ms (1 launches)</title></rect><rect x="539.0" y="150.0" width="33.0" height="22.0" fill="#1baf7a" rx="1" ><title>intra-node wire (NVLink P2P): 4.74–5.14 ms (2 launches)</title></rect><rect x="721.8" y="150.0" width="113.8" height="22.0" fill="url(#hatch)" rx="1" ><title>barrier / signal wait: 6.97–8.36 ms (1 launches)</title></rect><text x="839.6" y="165.0" class="val" text-anchor="start" >8.4 ms</text><text x="910.0" y="165.0" class="stat" text-anchor="start" >8.9k rows · 48 MB inter-node fetched (fixed) · 192 MB NVLink</text><text x="142.0" y="195.0" class="lbl" text-anchor="end" >rank 15 · node 3</text><rect x="156.6" y="180.0" width="38.1" height="22.0" fill="#c9c6bd" rx="1" ><title>index / pack / unpack / routing: 0.08–0.55 ms (7 launches)</title></rect><rect x="203.6" y="180.0" width="16.7" height="22.0" fill="url(#hatch)" rx="1" ><title>barrier / signal wait: 0.65–0.86 ms (1 launches)</title></rect><rect x="220.3" y="180.0" width="65.0" height="22.0" fill="#2a78d6" rx="1" ><title>inter-node wire (Slingshot): 0.86–1.65 ms (1 launches)</title></rect><rect x="221.3" y="180.0" width="47.2" height="22.0" fill="#1baf7a" rx="1" ><title>intra-node wire (NVLink P2P): 0.87–1.44 ms (3 launches)</title></rect><rect x="285.4" y="180.0" width="12.7" height="22.0" fill="url(#hatch)" rx="1" ><title>barrier / signal wait: 1.65–1.81 ms (1 launches)</title></rect><rect x="298.2" y="180.0" width="64.5" height="22.0" fill="#2a78d6" rx="1" ><title>inter-node wire (Slingshot): 1.81–2.59 ms (1 launches)</title></rect><rect x="299.3" y="180.0" width="47.2" height="22.0" fill="#1baf7a" rx="1" ><title>intra-node wire (NVLink P2P): 1.82–2.40 ms (3 launches)</title></rect><rect x="362.8" y="180.0" width="71.3" height="22.0" fill="url(#hatch)" rx="1" ><title>barrier / signal wait: 2.59–3.46 ms (1 launches)</title></rect><rect x="434.2" y="180.0" width="72.3" height="22.0" fill="#2a78d6" rx="1" ><title>inter-node wire (Slingshot): 3.46–4.35 ms (1 launches)</title></rect><rect x="434.8" y="180.0" width="47.1" height="22.0" fill="#1baf7a" rx="1" ><title>intra-node wire (NVLink P2P): 3.47–4.05 ms (3 launches)</title></rect><rect x="506.5" y="180.0" width="9.2" height="22.0" fill="url(#hatch)" rx="1" ><title>barrier / signal wait: 4.35–4.46 ms (1 launches)</title></rect><rect x="516.3" y="180.0" width="14.9" height="22.0" fill="#1baf7a" rx="1" ><title>intra-node wire (NVLink P2P): 4.47–4.65 ms (1 launches)</title></rect><rect x="517.7" y="180.0" width="116.0" height="22.0" fill="#eb6834" rx="1" ><title>expert GEMM (SM): 4.48–5.90 ms (1 launches)</title></rect><rect x="531.8" y="180.0" width="31.4" height="22.0" fill="#1baf7a" rx="1" ><title>intra-node wire (NVLink P2P): 4.65–5.04 ms (2 launches)</title></rect><rect x="633.9" y="180.0" width="202.4" height="22.0" fill="url(#hatch)" rx="1" ><title>barrier / signal wait: 5.90–8.37 ms (1 launches)</title></rect><text x="840.3" y="195.0" class="val" text-anchor="start" >8.4 ms</text><text x="910.0" y="195.0" class="stat" text-anchor="start" >4.9k rows · 48 MB inter-node fetched (fixed) · 192 MB NVLink</text><line x1="150.0" y1="212.0" x2="850.0" y2="212.0" class="ax"/><line x1="150.0" y1="212.0" x2="150.0" y2="216.0" class="ax"/><text x="150.0" y="226.0" class="tick" text-anchor="middle" >0</text><line x1="314.0" y1="212.0" x2="314.0" y2="216.0" class="ax"/><text x="314.0" y="226.0" class="tick" text-anchor="middle" >2</text><line x1="478.1" y1="212.0" x2="478.1" y2="216.0" class="ax"/><text x="478.1" y="226.0" class="tick" text-anchor="middle" >4</text><line x1="642.1" y1="212.0" x2="642.1" y2="216.0" class="ax"/><text x="642.1" y="226.0" class="tick" text-anchor="middle" >6</text><line x1="806.2" y1="212.0" x2="806.2" y2="216.0" class="ax"/><text x="806.2" y="226.0" class="tick" text-anchor="middle" >8</text><text x="850.0" y="238.0" class="tick" text-anchor="end" >ms since step start</text></svg>