<svg xmlns="http://www.w3.org/2000/svg" width="241.0pt" height="236.7pt" viewBox="0 0 241.0 236.7" font-family="Helvetica, Arial, sans-serif">
<rect width="241.0" height="236.7" fill="#ffffff"/>
<text x="16.00" y="10.00" font-size="6" text-anchor="start" fill="#5a5e66">placement (rel.)</text>
<text x="78.33" y="10.00" font-size="6" text-anchor="start" fill="#5a5e66">token dispatch → expert GEMM (ms, shared scale)</text>
<text x="16.00" y="19.00" font-size="7" text-anchor="start" fill="#17191c" font-weight="bold">NVSHMEM a2av + GEMM</text>
<text x="45.17" y="44.70" font-size="6" text-anchor="middle" fill="#5a5e66">no placement</text>
<text x="14.00" y="29.00" font-size="6" text-anchor="end" fill="#17191c">r0</text>
<line x1="78.33" y1="23.10" x2="191.00" y2="23.10" stroke="v1.1" stroke-width="0.3"/>
<rect x="81.05" y="21.50" width="70.97" height="3.20" fill="#2a78d6"><title>r0 inter 0.72–19.46 ms</title></rect>
<line x1="78.33" y1="26.80" x2="191.00" y2="26.80" stroke="v1.1" stroke-width="0.3"/>
<rect x="78.33" y="25.20" width="2.67" height="3.20" fill="#1baf7a"><title>r0 intra 0.00–0.71 ms</title></rect>
<line x1="78.33" y1="30.50" x2="191.00" y2="30.50" stroke="v1.1" stroke-width="0.3"/>
<rect x="169.81" y="28.90" width="18.98" height="3.20" fill="#eb6834"><title>r0 gemm 24.16–29.17 ms</title></rect>
<line x1="160.07" y1="21.20" x2="160.07" y2="32.40" stroke="#17191c" stroke-width="0.5"/>
<line x1="161.27" y1="21.20" x2="161.27" y2="32.40" stroke="#17191c" stroke-width="0.5"/>
<text x="240.00" y="28.80" font-size="5.5" text-anchor="end" fill="#5a5e66">29.2k rows · 187 MB</text>
<text x="14.00" y="41.60" font-size="6" text-anchor="end" fill="#17191c">r3</text>
<line x1="78.33" y1="35.70" x2="191.00" y2="35.70" stroke="v1.1" stroke-width="0.3"/>
<rect x="78.33" y="34.10" width="55.37" height="3.20" fill="#2a78d6"><title>r3 inter 0.00–14.62 ms</title></rect>
<line x1="78.33" y1="39.40" x2="191.00" y2="39.40" stroke="v1.1" stroke-width="0.3"/>
<rect x="133.73" y="37.80" width="3.71" height="3.20" fill="#1baf7a"><title>r3 intra 14.63–15.61 ms</title></rect>
<line x1="78.33" y1="43.10" x2="191.00" y2="43.10" stroke="v1.1" stroke-width="0.3"/>
<rect x="167.71" y="41.50" width="9.97" height="3.20" fill="#eb6834"><title>r3 gemm 23.61–26.24 ms</title></rect>
<line x1="160.79" y1="33.80" x2="160.79" y2="45.00" stroke="#17191c" stroke-width="0.5"/>
<line x1="161.99" y1="33.80" x2="161.99" y2="45.00" stroke="#17191c" stroke-width="0.5"/>
<text x="240.00" y="41.40" font-size="5.5" text-anchor="end" fill="#5a5e66">20.0k rows · 185 MB</text>
<text x="14.00" y="54.20" font-size="6" text-anchor="end" fill="#17191c">r8</text>
<line x1="78.33" y1="48.30" x2="191.00" y2="48.30" stroke="v1.1" stroke-width="0.3"/>
<rect x="81.51" y="46.70" width="79.21" height="3.20" fill="#2a78d6"><title>r8 inter 0.84–21.76 ms</title></rect>
<line x1="78.33" y1="52.00" x2="191.00" y2="52.00" stroke="v1.1" stroke-width="0.3"/>
<rect x="78.33" y="50.40" width="3.14" height="3.20" fill="#1baf7a"><title>r8 intra 0.00–0.83 ms</title></rect>
<line x1="78.33" y1="55.70" x2="191.00" y2="55.70" stroke="v1.1" stroke-width="0.3"/>
<rect x="165.09" y="54.10" width="7.85" height="3.20" fill="#eb6834"><title>r8 gemm 22.91–24.99 ms</title></rect>
<line x1="160.25" y1="46.40" x2="160.25" y2="57.60" stroke="#17191c" stroke-width="0.5"/>
<line x1="161.45" y1="46.40" x2="161.45" y2="57.60" stroke="#17191c" stroke-width="0.5"/>
<text x="240.00" y="54.00" font-size="5.5" text-anchor="end" fill="#5a5e66">13.4k rows · 195 MB</text>
<text x="14.00" y="66.80" font-size="6" text-anchor="end" fill="#17191c">r15</text>
<line x1="78.33" y1="60.90" x2="191.00" y2="60.90" stroke="v1.1" stroke-width="0.3"/>
<rect x="78.33" y="59.30" width="67.74" height="3.20" fill="#2a78d6"><title>r15 inter 0.00–17.89 ms</title></rect>
<line x1="78.33" y1="64.60" x2="191.00" y2="64.60" stroke="v1.1" stroke-width="0.3"/>
<rect x="146.07" y="63.00" width="3.25" height="3.20" fill="#1baf7a"><title>r15 intra 17.89–18.75 ms</title></rect>
<line x1="78.33" y1="68.30" x2="191.00" y2="68.30" stroke="v1.1" stroke-width="0.3"/>
<rect x="164.56" y="66.70" width="6.45" height="3.20" fill="#eb6834"><title>r15 gemm 22.77–24.48 ms</title></rect>
<line x1="160.78" y1="59.00" x2="160.78" y2="70.20" stroke="#17191c" stroke-width="0.5"/>
<line x1="161.98" y1="59.00" x2="161.98" y2="70.20" stroke="#17191c" stroke-width="0.5"/>
<text x="240.00" y="66.60" font-size="5.5" text-anchor="end" fill="#5a5e66">10.1k rows · 201 MB</text>
<text x="16.00" y="85.90" font-size="7" text-anchor="start" fill="#17191c" font-weight="bold">EPLB</text>
<text x="14.00" y="95.90" font-size="6" text-anchor="end" fill="#17191c">r5</text>
<line x1="78.33" y1="90.00" x2="191.00" y2="90.00" stroke="v1.1" stroke-width="0.3"/>
<rect x="80.80" y="88.40" width="86.06" height="3.20" fill="#2a78d6"><title>r5 inter 0.65–23.38 ms</title></rect>
<line x1="78.33" y1="93.70" x2="191.00" y2="93.70" stroke="v1.1" stroke-width="0.3"/>
<rect x="78.33" y="92.10" width="2.42" height="3.20" fill="#1baf7a"><title>r5 intra 0.00–0.64 ms</title></rect>
<rect x="166.87" y="92.10" width="0.85" height="3.20" fill="#1baf7a"><title>r5 intra 23.38–23.61 ms</title></rect>
<line x1="78.33" y1="97.40" x2="191.00" y2="97.40" stroke="v1.1" stroke-width="0.3"/>
<rect x="170.62" y="95.80" width="12.06" height="3.20" fill="#eb6834"><title>r5 gemm 24.37–27.56 ms</title></rect>
<line x1="167.30" y1="88.10" x2="167.30" y2="99.30" stroke="#17191c" stroke-width="0.5"/>
<line x1="168.50" y1="88.10" x2="168.50" y2="99.30" stroke="#17191c" stroke-width="0.5"/>
<rect x="16.00" y="88.40" width="6.99" height="3.20" fill="#eda100"><title>r5 placement inter 0.0–18.3 ms</title></rect>
<rect x="23.02" y="88.40" width="2.42" height="3.20" fill="#eda100"><title>r5 placement inter 18.4–24.7 ms</title></rect>
<rect x="25.47" y="88.40" width="1.49" height="3.20" fill="#eda100"><title>r5 placement inter 24.8–28.7 ms</title></rect>
<rect x="26.99" y="88.40" width="1.84" height="3.20" fill="#eda100"><title>r5 placement inter 28.7–33.6 ms</title></rect>
<rect x="30.87" y="88.40" width="1.76" height="3.20" fill="#eda100"><title>r5 placement inter 38.9–43.5 ms</title></rect>
<rect x="32.67" y="88.40" width="1.62" height="3.20" fill="#eda100"><title>r5 placement inter 43.6–47.9 ms</title></rect>
<rect x="34.32" y="88.40" width="1.65" height="3.20" fill="#eda100"><title>r5 placement inter 48.0–52.3 ms</title></rect>
<rect x="36.01" y="88.40" width="1.58" height="3.20" fill="#eda100"><title>r5 placement inter 52.4–56.5 ms</title></rect>
<rect x="37.62" y="88.40" width="1.71" height="3.20" fill="#eda100"><title>r5 placement inter 56.6–61.1 ms</title></rect>
<rect x="39.37" y="88.40" width="1.60" height="3.20" fill="#eda100"><title>r5 placement inter 61.2–65.3 ms</title></rect>
<rect x="41.00" y="88.40" width="1.92" height="3.20" fill="#eda100"><title>r5 placement inter 65.4–70.4 ms</title></rect>
<rect x="42.96" y="88.40" width="1.97" height="3.20" fill="#eda100"><title>r5 placement inter 70.5–75.7 ms</title></rect>
<rect x="44.97" y="88.40" width="3.27" height="3.20" fill="#eda100"><title>r5 placement inter 75.8–84.4 ms</title></rect>
<rect x="48.27" y="88.40" width="3.52" height="3.20" fill="#eda100"><title>r5 placement inter 84.5–93.7 ms</title></rect>
<rect x="51.82" y="88.40" width="4.15" height="3.20" fill="#eda100"><title>r5 placement inter 93.7–104.6 ms</title></rect>
<rect x="56.00" y="88.40" width="3.00" height="3.20" fill="#eda100"><title>r5 placement inter 104.7–112.5 ms</title></rect>
<rect x="59.03" y="88.40" width="0.99" height="3.20" fill="#eda100"><title>r5 placement inter 112.6–115.2 ms</title></rect>
<rect x="60.05" y="88.40" width="0.97" height="3.20" fill="#eda100"><title>r5 placement inter 115.3–117.8 ms</title></rect>
<rect x="28.87" y="92.10" width="0.30" height="3.20" fill="#1baf7a"><title>r5 placement intra 33.7–34.3 ms</title></rect>
<rect x="29.17" y="92.10" width="0.30" height="3.20" fill="#1baf7a"><title>r5 placement intra 34.5–35.1 ms</title></rect>
<rect x="29.45" y="92.10" width="0.30" height="3.20" fill="#1baf7a"><title>r5 placement intra 35.2–35.9 ms</title></rect>
<rect x="29.74" y="92.10" width="0.30" height="3.20" fill="#1baf7a"><title>r5 placement intra 36.0–36.6 ms</title></rect>
<rect x="30.02" y="92.10" width="0.30" height="3.20" fill="#1baf7a"><title>r5 placement intra 36.7–37.3 ms</title></rect>
<rect x="30.30" y="92.10" width="0.30" height="3.20" fill="#1baf7a"><title>r5 placement intra 37.4–38.1 ms</title></rect>
<rect x="30.59" y="92.10" width="0.30" height="3.20" fill="#1baf7a"><title>r5 placement intra 38.2–38.8 ms</title></rect>
<text x="73.33" y="98.80" font-size="5" text-anchor="end" fill="#5a5e66">118 ms · 1.0 GB</text>
<text x="240.00" y="95.70" font-size="5.5" text-anchor="end" fill="#5a5e66">17.8k rows · 195 MB</text>
<text x="14.00" y="108.50" font-size="6" text-anchor="end" fill="#17191c">r6</text>
<line x1="78.33" y1="102.60" x2="191.00" y2="102.60" stroke="v1.1" stroke-width="0.3"/>
<rect x="79.09" y="101.00" width="67.89" height="3.20" fill="#2a78d6"><title>r6 inter 0.20–18.13 ms</title></rect>
<line x1="78.33" y1="106.30" x2="191.00" y2="106.30" stroke="v1.1" stroke-width="0.3"/>
<rect x="78.33" y="104.70" width="0.74" height="3.20" fill="#1baf7a"><title>r6 intra 0.00–0.19 ms</title></rect>
<rect x="147.00" y="104.70" width="2.46" height="3.20" fill="#1baf7a"><title>r6 intra 18.14–18.79 ms</title></rect>
<line x1="78.33" y1="110.00" x2="191.00" y2="110.00" stroke="v1.1" stroke-width="0.3"/>
<rect x="168.98" y="108.40" width="12.95" height="3.20" fill="#eb6834"><title>r6 gemm 23.94–27.36 ms</title></rect>
<line x1="165.46" y1="100.70" x2="165.46" y2="111.90" stroke="#17191c" stroke-width="0.5"/>
<line x1="166.66" y1="100.70" x2="166.66" y2="111.90" stroke="#17191c" stroke-width="0.5"/>
<rect x="16.00" y="101.00" width="5.64" height="3.20" fill="#eda100"><title>r6 placement inter 0.0–14.8 ms</title></rect>
<rect x="21.67" y="101.00" width="5.68" height="3.20" fill="#eda100"><title>r6 placement inter 14.8–29.7 ms</title></rect>
<rect x="27.39" y="101.00" width="1.86" height="3.20" fill="#eda100"><title>r6 placement inter 29.8–34.7 ms</title></rect>
<rect x="29.27" y="101.00" width="1.01" height="3.20" fill="#eda100"><title>r6 placement inter 34.7–37.4 ms</title></rect>
<rect x="30.31" y="101.00" width="1.04" height="3.20" fill="#eda100"><title>r6 placement inter 37.5–40.2 ms</title></rect>
<rect x="31.38" y="101.00" width="1.29" height="3.20" fill="#eda100"><title>r6 placement inter 40.2–43.6 ms</title></rect>
<rect x="32.70" y="101.00" width="2.74" height="3.20" fill="#eda100"><title>r6 placement inter 43.7–50.9 ms</title></rect>
<rect x="36.60" y="101.00" width="2.12" height="3.20" fill="#eda100"><title>r6 placement inter 53.9–59.5 ms</title></rect>
<rect x="38.76" y="101.00" width="1.98" height="3.20" fill="#eda100"><title>r6 placement inter 59.6–64.7 ms</title></rect>
<rect x="40.78" y="101.00" width="2.16" height="3.20" fill="#eda100"><title>r6 placement inter 64.8–70.5 ms</title></rect>
<rect x="42.98" y="101.00" width="1.88" height="3.20" fill="#eda100"><title>r6 placement inter 70.6–75.5 ms</title></rect>
<rect x="44.90" y="101.00" width="3.41" height="3.20" fill="#eda100"><title>r6 placement inter 75.6–84.5 ms</title></rect>
<rect x="48.35" y="101.00" width="3.15" height="3.20" fill="#eda100"><title>r6 placement inter 84.6–92.9 ms</title></rect>
<rect x="51.53" y="101.00" width="3.43" height="3.20" fill="#eda100"><title>r6 placement inter 93.0–101.9 ms</title></rect>
<rect x="54.99" y="101.00" width="1.81" height="3.20" fill="#eda100"><title>r6 placement inter 102.0–106.8 ms</title></rect>
<rect x="56.84" y="101.00" width="1.41" height="3.20" fill="#eda100"><title>r6 placement inter 106.9–110.6 ms</title></rect>
<rect x="58.28" y="101.00" width="11.00" height="3.20" fill="#eda100"><title>r6 placement inter 110.6–139.4 ms</title></rect>
<rect x="69.31" y="101.00" width="2.49" height="3.20" fill="#eda100"><title>r6 placement inter 139.5–146.0 ms</title></rect>
<rect x="71.83" y="101.00" width="2.50" height="3.20" fill="#eda100"><title>r6 placement inter 146.1–152.6 ms</title></rect>
<rect x="35.48" y="104.70" width="0.30" height="3.20" fill="#1baf7a"><title>r6 placement intra 51.0–51.6 ms</title></rect>
<rect x="35.77" y="104.70" width="0.30" height="3.20" fill="#1baf7a"><title>r6 placement intra 51.7–52.4 ms</title></rect>
<rect x="36.05" y="104.70" width="0.30" height="3.20" fill="#1baf7a"><title>r6 placement intra 52.5–53.1 ms</title></rect>
<rect x="36.32" y="104.70" width="0.30" height="3.20" fill="#1baf7a"><title>r6 placement intra 53.2–53.8 ms</title></rect>
<text x="73.33" y="111.40" font-size="5" text-anchor="end" fill="#5a5e66">153 ms · 1.0 GB</text>
<text x="240.00" y="108.30" font-size="5.5" text-anchor="end" fill="#5a5e66">19.2k rows · 195 MB</text>
<text x="14.00" y="121.10" font-size="6" text-anchor="end" fill="#17191c">r10</text>
<line x1="78.33" y1="115.20" x2="191.00" y2="115.20" stroke="v1.1" stroke-width="0.3"/>
<rect x="79.08" y="113.60" width="62.08" height="3.20" fill="#2a78d6"><title>r10 inter 0.20–16.59 ms</title></rect>
<line x1="78.33" y1="118.90" x2="191.00" y2="118.90" stroke="v1.1" stroke-width="0.3"/>
<rect x="78.33" y="117.30" width="0.72" height="3.20" fill="#1baf7a"><title>r10 intra 0.00–0.19 ms</title></rect>
<rect x="141.16" y="117.30" width="2.38" height="3.20" fill="#1baf7a"><title>r10 intra 16.59–17.22 ms</title></rect>
<line x1="78.33" y1="122.60" x2="191.00" y2="122.60" stroke="v1.1" stroke-width="0.3"/>
<rect x="171.22" y="121.00" width="12.14" height="3.20" fill="#eb6834"><title>r10 gemm 24.53–27.74 ms</title></rect>
<line x1="167.80" y1="113.30" x2="167.80" y2="124.50" stroke="#17191c" stroke-width="0.5"/>
<line x1="169.00" y1="113.30" x2="169.00" y2="124.50" stroke="#17191c" stroke-width="0.5"/>
<rect x="16.00" y="113.60" width="0.97" height="3.20" fill="#eda100"><title>r10 placement inter 0.0–2.5 ms</title></rect>
<rect x="17.00" y="113.60" width="1.15" height="3.20" fill="#eda100"><title>r10 placement inter 2.6–5.6 ms</title></rect>
<rect x="18.18" y="113.60" width="0.97" height="3.20" fill="#eda100"><title>r10 placement inter 5.7–8.2 ms</title></rect>
<rect x="19.18" y="113.60" width="0.98" height="3.20" fill="#eda100"><title>r10 placement inter 8.3–10.9 ms</title></rect>
<rect x="20.18" y="113.60" width="1.01" height="3.20" fill="#eda100"><title>r10 placement inter 10.9–13.6 ms</title></rect>
<rect x="21.22" y="113.60" width="1.00" height="3.20" fill="#eda100"><title>r10 placement inter 13.7–16.3 ms</title></rect>
<rect x="22.26" y="113.60" width="1.23" height="3.20" fill="#eda100"><title>r10 placement inter 16.4–19.6 ms</title></rect>
<rect x="25.52" y="113.60" width="1.09" height="3.20" fill="#eda100"><title>r10 placement inter 24.9–27.8 ms</title></rect>
<rect x="26.64" y="113.60" width="1.01" height="3.20" fill="#eda100"><title>r10 placement inter 27.8–30.5 ms</title></rect>
<rect x="27.68" y="113.60" width="1.00" height="3.20" fill="#eda100"><title>r10 placement inter 30.6–33.2 ms</title></rect>
<rect x="28.71" y="113.60" width="1.12" height="3.20" fill="#eda100"><title>r10 placement inter 33.2–36.2 ms</title></rect>
<rect x="29.86" y="113.60" width="1.36" height="3.20" fill="#eda100"><title>r10 placement inter 36.3–39.8 ms</title></rect>
<rect x="31.25" y="113.60" width="1.29" height="3.20" fill="#eda100"><title>r10 placement inter 39.9–43.3 ms</title></rect>
<rect x="32.58" y="113.60" width="1.07" height="3.20" fill="#eda100"><title>r10 placement inter 43.4–46.2 ms</title></rect>
<rect x="33.67" y="113.60" width="1.03" height="3.20" fill="#eda100"><title>r10 placement inter 46.2–48.9 ms</title></rect>
<rect x="34.74" y="113.60" width="0.97" height="3.20" fill="#eda100"><title>r10 placement inter 49.0–51.6 ms</title></rect>
<rect x="35.74" y="113.60" width="0.99" height="3.20" fill="#eda100"><title>r10 placement inter 51.6–54.2 ms</title></rect>
<rect x="36.75" y="113.60" width="0.98" height="3.20" fill="#eda100"><title>r10 placement inter 54.3–56.9 ms</title></rect>
<rect x="37.77" y="113.60" width="1.04" height="3.20" fill="#eda100"><title>r10 placement inter 57.0–59.7 ms</title></rect>
<rect x="23.52" y="117.30" width="0.30" height="3.20" fill="#1baf7a"><title>r10 placement intra 19.7–20.3 ms</title></rect>
<rect x="23.81" y="117.30" width="0.30" height="3.20" fill="#1baf7a"><title>r10 placement intra 20.4–21.1 ms</title></rect>
<rect x="24.10" y="117.30" width="0.30" height="3.20" fill="#1baf7a"><title>r10 placement intra 21.2–21.8 ms</title></rect>
<rect x="24.39" y="117.30" width="0.30" height="3.20" fill="#1baf7a"><title>r10 placement intra 21.9–22.6 ms</title></rect>
<rect x="24.67" y="117.30" width="0.30" height="3.20" fill="#1baf7a"><title>r10 placement intra 22.7–23.3 ms</title></rect>
<rect x="24.95" y="117.30" width="0.30" height="3.20" fill="#1baf7a"><title>r10 placement intra 23.4–24.1 ms</title></rect>
<rect x="25.25" y="117.30" width="0.30" height="3.20" fill="#1baf7a"><title>r10 placement intra 24.2–24.8 ms</title></rect>
<text x="73.33" y="124.00" font-size="5" text-anchor="end" fill="#5a5e66">60 ms · 1.0 GB</text>
<text x="240.00" y="120.90" font-size="5.5" text-anchor="end" fill="#5a5e66">18.5k rows · 194 MB</text>
<text x="14.00" y="133.70" font-size="6" text-anchor="end" fill="#17191c">r15</text>
<line x1="78.33" y1="127.80" x2="191.00" y2="127.80" stroke="v1.1" stroke-width="0.3"/>
<rect x="78.33" y="126.20" width="55.97" height="3.20" fill="#2a78d6"><title>r15 inter 0.00–14.78 ms</title></rect>
<line x1="78.33" y1="131.50" x2="191.00" y2="131.50" stroke="v1.1" stroke-width="0.3"/>
<rect x="134.31" y="129.90" width="3.66" height="3.20" fill="#1baf7a"><title>r15 intra 14.78–15.75 ms</title></rect>
<line x1="78.33" y1="135.20" x2="191.00" y2="135.20" stroke="v1.1" stroke-width="0.3"/>
<rect x="170.80" y="133.60" width="12.99" height="3.20" fill="#eb6834"><title>r15 gemm 24.42–27.85 ms</title></rect>
<line x1="167.07" y1="125.90" x2="167.07" y2="137.10" stroke="#17191c" stroke-width="0.5"/>
<line x1="168.27" y1="125.90" x2="168.27" y2="137.10" stroke="#17191c" stroke-width="0.5"/>
<rect x="16.00" y="126.20" width="6.46" height="3.20" fill="#eda100"><title>r15 placement inter 0.0–16.9 ms</title></rect>
<rect x="22.49" y="126.20" width="5.88" height="3.20" fill="#eda100"><title>r15 placement inter 17.0–32.4 ms</title></rect>
<rect x="28.40" y="126.20" width="4.77" height="3.20" fill="#eda100"><title>r15 placement inter 32.5–44.9 ms</title></rect>
<rect x="33.21" y="126.20" width="2.78" height="3.20" fill="#eda100"><title>r15 placement inter 45.0–52.3 ms</title></rect>
<rect x="36.03" y="126.20" width="1.87" height="3.20" fill="#eda100"><title>r15 placement inter 52.4–57.3 ms</title></rect>
<rect x="37.93" y="126.20" width="1.99" height="3.20" fill="#eda100"><title>r15 placement inter 57.4–62.6 ms</title></rect>
<rect x="39.95" y="126.20" width="2.61" height="3.20" fill="#eda100"><title>r15 placement inter 62.7–69.5 ms</title></rect>
<rect x="42.59" y="126.20" width="1.11" height="3.20" fill="#eda100"><title>r15 placement inter 69.6–72.5 ms</title></rect>
<rect x="43.74" y="126.20" width="1.56" height="3.20" fill="#eda100"><title>r15 placement inter 72.6–76.7 ms</title></rect>
<rect x="45.33" y="126.20" width="0.98" height="3.20" fill="#eda100"><title>r15 placement inter 76.7–79.3 ms</title></rect>
<rect x="46.34" y="126.20" width="0.97" height="3.20" fill="#eda100"><title>r15 placement inter 79.4–81.9 ms</title></rect>
<rect x="47.34" y="126.20" width="2.00" height="3.20" fill="#eda100"><title>r15 placement inter 82.0–87.2 ms</title></rect>
<rect x="49.37" y="126.20" width="2.17" height="3.20" fill="#eda100"><title>r15 placement inter 87.3–93.0 ms</title></rect>
<rect x="51.57" y="126.20" width="2.79" height="3.20" fill="#eda100"><title>r15 placement inter 93.1–100.4 ms</title></rect>
<rect x="54.39" y="126.20" width="1.25" height="3.20" fill="#eda100"><title>r15 placement inter 100.5–103.7 ms</title></rect>
<rect x="55.67" y="126.20" width="1.95" height="3.20" fill="#eda100"><title>r15 placement inter 103.8–108.9 ms</title></rect>
<rect x="57.66" y="129.90" width="0.30" height="3.20" fill="#1baf7a"><title>r15 placement intra 109.0–109.7 ms</title></rect>
<rect x="57.95" y="129.90" width="0.30" height="3.20" fill="#1baf7a"><title>r15 placement intra 109.8–110.4 ms</title></rect>
<rect x="58.24" y="129.90" width="0.30" height="3.20" fill="#1baf7a"><title>r15 placement intra 110.5–111.2 ms</title></rect>
<rect x="58.54" y="129.90" width="0.30" height="3.20" fill="#1baf7a"><title>r15 placement intra 111.3–112.0 ms</title></rect>
<text x="73.33" y="136.60" font-size="5" text-anchor="end" fill="#5a5e66">112 ms · 0.9 GB</text>
<text x="240.00" y="133.50" font-size="5.5" text-anchor="end" fill="#5a5e66">20.6k rows · 187 MB</text>
<text x="16.00" y="152.80" font-size="7" text-anchor="start" fill="#17191c" font-weight="bold">COMET</text>
<text x="45.17" y="178.50" font-size="6" text-anchor="middle" fill="#5a5e66">no placement</text>
<text x="14.00" y="162.80" font-size="6" text-anchor="end" fill="#17191c">r0</text>
<line x1="78.33" y1="156.90" x2="191.00" y2="156.90" stroke="v1.1" stroke-width="0.3"/>
<rect x="78.33" y="155.30" width="7.68" height="3.20" fill="#2a78d6"><title>r0 inter 0.00–2.03 ms</title></rect>
<rect x="87.47" y="155.30" width="15.96" height="3.20" fill="#2a78d6"><title>r0 inter 2.41–6.63 ms</title></rect>
<line x1="78.33" y1="160.60" x2="191.00" y2="160.60" stroke="v1.1" stroke-width="0.3"/>
<rect x="78.36" y="159.00" width="4.32" height="3.20" fill="#1baf7a"><title>r0 intra 0.01–1.15 ms</title></rect>
<rect x="87.52" y="159.00" width="4.26" height="3.20" fill="#1baf7a"><title>r0 intra 2.43–3.55 ms</title></rect>
<rect x="96.34" y="159.00" width="4.25" height="3.20" fill="#1baf7a"><title>r0 intra 4.76–5.88 ms</title></rect>
<rect x="104.00" y="159.00" width="4.26" height="3.20" fill="#1baf7a"><title>r0 intra 6.78–7.90 ms</title></rect>
<line x1="78.33" y1="164.30" x2="191.00" y2="164.30" stroke="v1.1" stroke-width="0.3"/>
<rect x="104.10" y="162.70" width="27.55" height="3.20" fill="#eb6834"><title>r0 gemm 6.80–14.08 ms</title></rect>
<text x="240.00" y="162.60" font-size="5.5" text-anchor="end" fill="#5a5e66">29.2k rows · 96 MB</text>
<text x="14.00" y="175.40" font-size="6" text-anchor="end" fill="#17191c">r5</text>
<line x1="78.33" y1="169.50" x2="191.00" y2="169.50" stroke="v1.1" stroke-width="0.3"/>
<rect x="78.33" y="167.90" width="5.76" height="3.20" fill="#2a78d6"><title>r5 inter 0.00–1.52 ms</title></rect>
<rect x="85.07" y="167.90" width="7.46" height="3.20" fill="#2a78d6"><title>r5 inter 1.78–3.75 ms</title></rect>
<rect x="93.19" y="167.90" width="5.74" height="3.20" fill="#2a78d6"><title>r5 inter 3.92–5.44 ms</title></rect>
<line x1="78.33" y1="173.20" x2="191.00" y2="173.20" stroke="v1.1" stroke-width="0.3"/>
<rect x="78.39" y="171.60" width="4.24" height="3.20" fill="#1baf7a"><title>r5 intra 0.01–1.14 ms</title></rect>
<rect x="85.11" y="171.60" width="4.27" height="3.20" fill="#1baf7a"><title>r5 intra 1.79–2.92 ms</title></rect>
<rect x="93.21" y="171.60" width="4.23" height="3.20" fill="#1baf7a"><title>r5 intra 3.93–5.05 ms</title></rect>
<rect x="101.59" y="171.60" width="4.23" height="3.20" fill="#1baf7a"><title>r5 intra 6.14–7.26 ms</title></rect>
<line x1="78.33" y1="176.90" x2="191.00" y2="176.90" stroke="v1.1" stroke-width="0.3"/>
<rect x="101.67" y="175.30" width="16.75" height="3.20" fill="#eb6834"><title>r5 gemm 6.16–10.59 ms</title></rect>
<text x="240.00" y="175.20" font-size="5.5" text-anchor="end" fill="#5a5e66">18.1k rows · 96 MB</text>
<text x="14.00" y="188.00" font-size="6" text-anchor="end" fill="#17191c">r11</text>
<line x1="78.33" y1="182.10" x2="191.00" y2="182.10" stroke="v1.1" stroke-width="0.3"/>
<rect x="78.33" y="180.50" width="8.15" height="3.20" fill="#2a78d6"><title>r11 inter 0.00–2.15 ms</title></rect>
<rect x="87.74" y="180.50" width="8.95" height="3.20" fill="#2a78d6"><title>r11 inter 2.48–4.85 ms</title></rect>
<rect x="96.95" y="180.50" width="8.80" height="3.20" fill="#2a78d6"><title>r11 inter 4.92–7.24 ms</title></rect>
<line x1="78.33" y1="185.80" x2="191.00" y2="185.80" stroke="v1.1" stroke-width="0.3"/>
<rect x="78.36" y="184.20" width="4.26" height="3.20" fill="#1baf7a"><title>r11 intra 0.01–1.13 ms</title></rect>
<rect x="87.75" y="184.20" width="4.24" height="3.20" fill="#1baf7a"><title>r11 intra 2.49–3.61 ms</title></rect>
<rect x="97.02" y="184.20" width="4.35" height="3.20" fill="#1baf7a"><title>r11 intra 4.93–6.08 ms</title></rect>
<rect x="105.84" y="184.20" width="4.23" height="3.20" fill="#1baf7a"><title>r11 intra 7.27–8.38 ms</title></rect>
<line x1="78.33" y1="189.50" x2="191.00" y2="189.50" stroke="v1.1" stroke-width="0.3"/>
<rect x="106.05" y="187.90" width="17.00" height="3.20" fill="#eb6834"><title>r11 gemm 7.32–11.81 ms</title></rect>
<text x="240.00" y="187.80" font-size="5.5" text-anchor="end" fill="#5a5e66">17.0k rows · 96 MB</text>
<text x="14.00" y="200.60" font-size="6" text-anchor="end" fill="#17191c">r15</text>
<line x1="78.33" y1="194.70" x2="191.00" y2="194.70" stroke="v1.1" stroke-width="0.3"/>
<rect x="78.33" y="193.10" width="5.64" height="3.20" fill="#2a78d6"><title>r15 inter 0.00–1.49 ms</title></rect>
<rect x="84.92" y="193.10" width="15.74" height="3.20" fill="#2a78d6"><title>r15 inter 1.74–5.90 ms</title></rect>
<line x1="78.33" y1="198.40" x2="191.00" y2="198.40" stroke="v1.1" stroke-width="0.3"/>
<rect x="78.37" y="196.80" width="4.25" height="3.20" fill="#1baf7a"><title>r15 intra 0.01–1.13 ms</title></rect>
<rect x="84.96" y="196.80" width="4.23" height="3.20" fill="#1baf7a"><title>r15 intra 1.75–2.87 ms</title></rect>
<rect x="94.85" y="196.80" width="4.22" height="3.20" fill="#1baf7a"><title>r15 intra 4.36–5.48 ms</title></rect>
<rect x="103.73" y="196.80" width="4.33" height="3.20" fill="#1baf7a"><title>r15 intra 6.71–7.85 ms</title></rect>
<line x1="78.33" y1="202.10" x2="191.00" y2="202.10" stroke="v1.1" stroke-width="0.3"/>
<rect x="103.77" y="200.50" width="10.59" height="3.20" fill="#eb6834"><title>r15 gemm 6.72–9.52 ms</title></rect>
<text x="240.00" y="200.40" font-size="5.5" text-anchor="end" fill="#5a5e66">10.1k rows · 96 MB</text>
<line x1="78.33" y1="213.70" x2="191.00" y2="213.70" stroke="#5a5e66" stroke-width="0.5"/>
<line x1="78.33" y1="213.70" x2="78.33" y2="215.70" stroke="#5a5e66" stroke-width="0.5"/>
<text x="78.33" y="221.20" font-size="6" text-anchor="middle" fill="#5a5e66">0</text>
<line x1="97.26" y1="213.70" x2="97.26" y2="215.70" stroke="#5a5e66" stroke-width="0.5"/>
<text x="97.26" y="221.20" font-size="6" text-anchor="middle" fill="#5a5e66">5</text>
<line x1="116.20" y1="213.70" x2="116.20" y2="215.70" stroke="#5a5e66" stroke-width="0.5"/>
<text x="116.20" y="221.20" font-size="6" text-anchor="middle" fill="#5a5e66">10</text>
<line x1="135.13" y1="213.70" x2="135.13" y2="215.70" stroke="#5a5e66" stroke-width="0.5"/>
<text x="135.13" y="221.20" font-size="6" text-anchor="middle" fill="#5a5e66">15</text>
<line x1="154.06" y1="213.70" x2="154.06" y2="215.70" stroke="#5a5e66" stroke-width="0.5"/>
<text x="154.06" y="221.20" font-size="6" text-anchor="middle" fill="#5a5e66">20</text>
<line x1="172.99" y1="213.70" x2="172.99" y2="215.70" stroke="#5a5e66" stroke-width="0.5"/>
<text x="172.99" y="221.20" font-size="6" text-anchor="middle" fill="#5a5e66">25</text>
<text x="191.00" y="221.20" font-size="6" text-anchor="end" fill="#5a5e66">ms</text>
<rect x="16.00" y="227.20" width="7.00" height="4.00" fill="#2a78d6"></rect>
<text x="25.00" y="231.00" font-size="5.5" text-anchor="start" fill="#5a5e66">NIC RDMA</text>
<rect x="54.00" y="227.20" width="7.00" height="4.00" fill="#1baf7a"></rect>
<text x="63.00" y="231.00" font-size="5.5" text-anchor="start" fill="#5a5e66">NVLink</text>
<rect x="86.50" y="227.20" width="7.00" height="4.00" fill="#eb6834"></rect>
<text x="95.50" y="231.00" font-size="5.5" text-anchor="start" fill="#5a5e66">expert GEMM</text>
<rect x="132.75" y="227.20" width="7.00" height="4.00" fill="#eda100"></rect>
<text x="141.75" y="231.00" font-size="5.5" text-anchor="start" fill="#5a5e66">placement put</text>
<line x1="184.50" y1="226.20" x2="184.50" y2="232.20" stroke="#17191c" stroke-width="0.5"/>
<line x1="185.90" y1="226.20" x2="185.90" y2="232.20" stroke="#17191c" stroke-width="0.5"/>
<text x="188.50" y="231.00" font-size="5.5" text-anchor="start" fill="#5a5e66">barrier</text>
</svg>